<?xml version="1.0" encoding="UTF-8"?>
<svg xmlns="http://www.w3.org/2000/svg" viewBox="0 0 220 220">
  <rect width="220" height="220" fill="#000"/>
  <g transform="translate(26.4 41.6) scale(0.76)">
    <path fill="#fff" d="m194.26,13.92c-12.05-6.52-27-10.74-44.83-12.68l-4.37,34.4c1.28.5,2.51,1.02,3.66,1.6,7.87,3.99,11.8,10.67,11.8,20.03s-3.9,16.2-11.7,20.52c-2.8,1.52-6.01,2.76-9.59,3.75l-4.25,33.41c25-1.15,44.78-5.43,59.29-12.86,17.16-8.79,25.74-23.81,25.74-45.06,0-19.46-8.58-33.83-25.74-43.11Z"/>
    <path fill="#fff" d="m112.12,84.26h-52.43V31.26h55.97c1.09,0,2.14.03,3.19.06l3.98-31.32H0v180h59.68v-64.72h48.49l3.94-31.02Z"/>
  </g>
</svg>
