<svg xmlns="http://www.w3.org/2000/svg" version="1.1" xmlns:xlink="http://www.w3.org/1999/xlink" width="1024" height="1024"><svg baseProfile="tiny" height="1024" version="1.2" width="1024" viewBox="126 92 771 771" xmlns="http://www.w3.org/2000/svg" xmlns:ev="http://www.w3.org/2001/xml-events" xmlns:xlink="http://www.w3.org/1999/xlink">
    <defs></defs>
    <path d="M 494,184 L 487,188 L 476,200 L 311,448 L 307,456 L 304,467 L 304,670 L 314,668 L 321,662 L 511,377 L 515,380 L 702,661 L 708,667 L 715,670 L 719,670 L 719,465 L 715,453 L 544,196 L 536,188 L 523,182 L 505,181 Z" fill="#306998" stroke="none"></path>
    <path d="M 219,757 L 220,767 L 225,772 L 230,774 L 793,774 L 799,771 L 804,763 L 802,750 L 793,727 L 786,717 L 777,708 L 769,703 L 757,699 L 668,699 L 653,694 L 644,683 L 589,600 L 584,596 L 578,594 L 442,595 L 433,602 L 376,688 L 370,694 L 355,699 L 267,699 L 257,702 L 245,709 L 234,721 L 227,733 Z" fill="#FFD43B" stroke="none"></path>
</svg><style>@media (prefers-color-scheme: light) { :root { filter: none; } }
@media (prefers-color-scheme: dark) { :root { filter: none; } }
</style></svg>
